<?xml version="1.0" encoding="UTF-8" standalone="no"?>
<svg
   xmlns:dc="http://purl.org/dc/elements/1.1/"
   xmlns:cc="http://creativecommons.org/ns#"
   xmlns:rdf="http://www.w3.org/1999/02/22-rdf-syntax-ns#"
   xmlns:svg="http://www.w3.org/2000/svg"
   xmlns="http://www.w3.org/2000/svg"
   xmlns:xlink="http://www.w3.org/1999/xlink"
   xmlns:sodipodi="http://sodipodi.sourceforge.net/DTD/sodipodi-0.dtd"
   xmlns:inkscape="http://www.inkscape.org/namespaces/inkscape"
   version="1.1"
   viewBox="0.0 0.0 773.0524934383202 408.0"
   fill="none"
   stroke="none"
   stroke-linecap="square"
   stroke-miterlimit="10"
   id="svg2"
   inkscape:version="0.91 r13725"
   sodipodi:docname="calls-and-proceedings-graph.svg">
  <metadata
     id="metadata127">
    <rdf:RDF>
      <cc:Work
         rdf:about="">
        <dc:format>image/svg+xml</dc:format>
        <dc:type
           rdf:resource="http://purl.org/dc/dcmitype/StillImage" />
      </cc:Work>
    </rdf:RDF>
  </metadata>
  <defs
     id="defs125" />
  <sodipodi:namedview
     pagecolor="#ffffff"
     bordercolor="#666666"
     borderopacity="1"
     objecttolerance="10"
     gridtolerance="10"
     guidetolerance="10"
     inkscape:pageopacity="0"
     inkscape:pageshadow="2"
     inkscape:window-width="1871"
     inkscape:window-height="1056"
     id="namedview123"
     showgrid="false"
     inkscape:zoom="1.7075167"
     inkscape:cx="393.08698"
     inkscape:cy="173.88694"
     inkscape:window-x="49"
     inkscape:window-y="24"
     inkscape:window-maximized="1"
     inkscape:current-layer="g7" />
  <clipPath
     id="p.0">
    <path
       d="m0 0l773.0525 0l0 408.0l-773.0525 0l0 -408.0z"
       clip-rule="nonzero"
       id="path5" />
  </clipPath>
  <g
     clip-path="url(#p.0)"
     id="g7">
    <path
       fill="#000000"
       fill-opacity="0.0"
       d="m0 0l773.0525 0l0 408.0l-773.0525 0z"
       fill-rule="nonzero"
       id="path9" />
    <path
       fill="#000000"
       fill-opacity="0.0"
       d="m482.1047 45.472443l269.0394 0l0 49.259842l-269.0394 0z"
       fill-rule="nonzero"
       id="path11" />
    <path
       stroke="#000000"
       stroke-width="2.0"
       stroke-linejoin="round"
       stroke-linecap="butt"
       d="m482.1047 45.472443l269.0394 0l0 49.259842l-269.0394 0z"
       fill-rule="nonzero"
       id="path13" />
    <path
       fill="#000000"
       fill-opacity="0.0"
       d="m16.629921 32.406685l354.11023 0l0 76.220474l-354.11023 0z"
       fill-rule="nonzero"
       id="path17" />
    <path
       stroke="#000000"
       stroke-width="2.0"
       stroke-linejoin="round"
       stroke-linecap="butt"
       d="m16.629921 32.406685l354.11023 0l0 76.220474l-354.11023 0z"
       fill-rule="nonzero"
       id="path19" />
    <path
       fill="#000000"
       fill-opacity="0.0"
       d="m482.94543 158.73491l269.03937 0l0 71.14961l-269.03937 0z"
       fill-rule="nonzero"
       id="path25" />
    <path
       stroke="#000000"
       stroke-width="2.0"
       stroke-linejoin="round"
       stroke-linecap="butt"
       d="m482.94543 158.73491l269.03937 0l0 71.14961l-269.03937 0z"
       fill-rule="nonzero"
       id="path27" />
    <path
       fill="#000000"
       fill-opacity="0.0"
       d="m33.68504 162.93964l320.0 0l0 62.740158l-320.0 0z"
       fill-rule="nonzero"
       id="path33" />
    <path
       stroke="#000000"
       stroke-width="2.0"
       stroke-linejoin="round"
       stroke-linecap="butt"
       d="m33.68504 162.93964l320.0 0l0 62.740158l-320.0 0z"
       fill-rule="nonzero"
       id="path35" />
    <path
       fill="#000000"
       fill-opacity="0.0"
       d="m482.94543 310.7349l269.03937 0l0 71.14963l-269.03937 0z"
       fill-rule="nonzero"
       id="path41" />
    <path
       stroke="#000000"
       stroke-width="2.0"
       stroke-linejoin="round"
       stroke-linecap="butt"
       d="m482.94543 310.7349l269.03937 0l0 71.14963l-269.03937 0z"
       fill-rule="nonzero"
       id="path43" />
    <path
       fill="#000000"
       fill-opacity="0.0"
       d="m33.68504 314.93964l320.0 0l0 62.740143l-320.0 0z"
       fill-rule="nonzero"
       id="path49" />
    <path
       stroke="#000000"
       stroke-width="2.0"
       stroke-linejoin="round"
       stroke-linecap="butt"
       d="m33.68504 314.93964l320.0 0l0 62.740143l-320.0 0z"
       fill-rule="nonzero"
       id="path51" />
    <path
       fill="#000000"
       fill-opacity="0.0"
       d="m370.74014 70.51692l111.37009 -0.40944672"
       fill-rule="nonzero"
       id="path57" />
    <path
       stroke="#000000"
       stroke-width="3.0"
       stroke-linejoin="round"
       stroke-linecap="butt"
       d="m388.74002 70.450745l93.37021 -0.34326935"
       fill-rule="evenodd"
       id="path59" />
    <path
       fill="#000000"
       stroke="#000000"
       stroke-width="3.0"
       stroke-linecap="butt"
       d="m388.72183 65.49558l-13.596008 5.0052185l13.632416 4.9051056z"
       fill-rule="evenodd"
       id="path61" />
    <path
       fill="#000000"
       fill-opacity="0.0"
       d="m616.6244 94.732285l0.85040283 64.0"
       fill-rule="nonzero"
       id="path63" />
    <path
       stroke="#000000"
       stroke-width="3.0"
       stroke-linejoin="round"
       stroke-linecap="butt"
       d="m616.6244 94.732285l0.6112671 46.001587"
       fill-rule="evenodd"
       id="path65" />
    <path
       fill="#000000"
       stroke="#000000"
       stroke-width="3.0"
       stroke-linecap="butt"
       d="m612.2809 140.79971l5.13562 13.547256l4.7738647 -13.67894z"
       fill-rule="evenodd"
       id="path67" />
    <path
       fill="#000000"
       fill-opacity="0.0"
       d="m353.68503 194.30971l129.25986 0"
       fill-rule="nonzero"
       id="path69" />
    <path
       stroke="#000000"
       stroke-width="3.0"
       stroke-linejoin="round"
       stroke-linecap="butt"
       d="m353.68503 194.30971l111.25986 0"
       fill-rule="evenodd"
       id="path71" />
    <path
       fill="#000000"
       stroke="#000000"
       stroke-width="3.0"
       stroke-linecap="butt"
       d="m464.9449 199.26491l13.614288 -4.9552l-13.614288 -4.9552z"
       fill-rule="evenodd"
       id="path73" />
    <path
       fill="#000000"
       fill-opacity="0.0"
       d="m482.94543 346.30972l-129.25986 0"
       fill-rule="nonzero"
       id="path75" />
    <path
       stroke="#000000"
       stroke-width="3.0"
       stroke-linejoin="round"
       stroke-linecap="butt"
       d="m482.9454 346.30972l-111.25983 0"
       fill-rule="evenodd"
       id="path77" />
    <path
       fill="#000000"
       stroke="#000000"
       stroke-width="3.0"
       stroke-linecap="butt"
       d="m371.68558 341.35452l-13.614288 4.9552l13.614288 4.9552z"
       fill-rule="evenodd"
       id="path79" />
    <path
       fill="#000000"
       fill-opacity="0.0"
       d="m193.68504 314.93964l0 -89.25984"
       fill-rule="nonzero"
       id="path81" />
    <path
       stroke="#000000"
       stroke-width="3.0"
       stroke-linejoin="round"
       stroke-linecap="butt"
       d="m193.68504 314.93964l0 -71.25984"
       fill-rule="evenodd"
       id="path83" />
    <path
       fill="#000000"
       stroke="#000000"
       stroke-width="3.0"
       stroke-linecap="butt"
       d="m198.64024 243.6798l-4.9552 -13.614304l-4.9552 13.614304z"
       fill-rule="evenodd"
       id="path85" />
    <path
       fill="#000000"
       fill-opacity="0.0"
       d="m617.46515 310.7349l-266.29926 -83.37007"
       fill-rule="nonzero"
       id="path87" />
    <path
       d="M 602.28723,303.35706 353.16589,225.36483"
       id="path89"
       inkscape:connector-curvature="0"
       style="fill-rule:evenodd;stroke:#000000;stroke-width:3;stroke-linecap:butt;stroke-linejoin:round" />
    <path
       d="m 600.80676,308.0859 14.47296,-0.66132 -11.51202,-8.79641 z"
       id="path91"
       inkscape:connector-curvature="0"
       style="fill:#000000;fill-rule:evenodd;stroke:#000000;stroke-width:3;stroke-linecap:butt" />
    <path
       fill="#000000"
       fill-opacity="0.0"
       d="m365.68753 13.894043l135.1496 0l0 54.708664l-135.1496 0z"
       fill-rule="nonzero"
       id="path93" />
    <path
       fill="#000000"
       fill-opacity="0.0"
       d="m587.5827 100.642845l214.51965 0l0 37.039375l-214.51965 0z"
       fill-rule="nonzero"
       id="path99" />
    <path
       fill="#000000"
       d="m628.2226 124.18784l1.6875 -0.09375q0 0.71875 0.21875 1.234375q0.21875 0.515625 0.8125 0.84375q0.609375 0.3125 1.40625 0.3125q1.109375 0 1.671875 -0.4375q0.5625 -0.453125 0.5625 -1.046875q0 -0.4375 -0.34375 -0.828125q-0.34375 -0.390625 -1.671875 -0.953125q-1.328125 -0.578125 -1.703125 -0.8125q-0.625 -0.375 -0.9375 -0.890625q-0.3125 -0.515625 -0.3125 -1.1875q0 -1.171875 0.921875 -2.0q0.9375 -0.84375 2.609375 -0.84375q1.84375 0 2.8125 0.859375q0.96875 0.859375 1.015625 2.265625l-1.640625 0.109375q-0.046875 -0.890625 -0.640625 -1.40625q-0.59375 -0.53125 -1.671875 -0.53125q-0.875 0 -1.359375 0.40625q-0.484375 0.390625 -0.484375 0.859375q0 0.46875 0.421875 0.8125q0.28125 0.25 1.4375 0.75q1.9375 0.828125 2.4375 1.3125q0.796875 0.765625 0.796875 1.875q0 0.734375 -0.453125 1.4375q-0.453125 0.703125 -1.375 1.125q-0.921875 0.421875 -2.171875 0.421875q-1.703125 0 -2.90625 -0.84375q-1.203125 -0.84375 -1.140625 -2.75zm15.984375 -0.21875l1.671875 0.171875q-0.625 1.859375 -1.796875 2.75q-1.15625 0.890625 -2.640625 0.890625q-1.609375 0 -2.609375 -1.03125q-1.0 -1.046875 -1.0 -2.90625q0 -1.609375 0.640625 -3.171875q0.640625 -1.5625 1.828125 -2.375q1.203125 -0.8125 2.734375 -0.8125q1.578125 0 2.5 0.90625q0.9375 0.890625 0.9375 2.359375l-1.65625 0.109375q0 -0.9375 -0.53125 -1.453125q-0.53125 -0.53125 -1.40625 -0.53125q-1.015625 0 -1.765625 0.640625q-0.734375 0.640625 -1.15625 1.9375q-0.421875 1.296875 -0.421875 2.515625q0 1.25 0.546875 1.890625q0.5625 0.625 1.375 0.625q0.828125 0 1.5625 -0.609375q0.75 -0.625 1.1875 -1.90625zm2.515625 3.59375l2.84375 -13.59375l1.6875 0l-1.09375 5.21875q0.9375 -0.90625 1.734375 -1.296875q0.8125 -0.40625 1.671875 -0.40625q1.21875 0 1.890625 0.65625q0.6875 0.640625 0.6875 1.6875q0 0.53125 -0.296875 1.921875l-1.21875 5.8125l-1.671875 0l1.25 -5.96875q0.265625 -1.296875 0.265625 -1.625q0 -0.484375 -0.34375 -0.78125q-0.328125 -0.3125 -0.953125 -0.3125q-0.90625 0 -1.734375 0.484375q-0.828125 0.46875 -1.296875 1.296875q-0.46875 0.828125 -0.859375 2.671875l-0.875 4.234375l-1.6875 0zm17.625732 -3.34375l1.625 0.15625q-0.359375 1.21875 -1.625 2.3125q-1.265625 1.09375 -3.015625 1.09375q-1.09375 0 -2.015625 -0.5q-0.90625 -0.5 -1.390625 -1.46875q-0.46875 -0.96875 -0.46875 -2.203125q0 -1.609375 0.75 -3.125q0.75 -1.515625 1.9375 -2.25q1.1875 -0.75 2.5625 -0.75q1.765625 0 2.8125 1.09375q1.0625 1.09375 1.0625 2.984375q0 0.734375 -0.140625 1.484375l-7.25 0q-0.03125 0.296875 -0.03125 0.53125q0 1.375 0.625 2.109375q0.640625 0.71875 1.5625 0.71875q0.859375 0 1.6875 -0.5625q0.84375 -0.5625 1.3125 -1.625zm-4.890625 -2.453125l5.53125 0q0.015625 -0.25 0.015625 -0.359375q0 -1.265625 -0.640625 -1.9375q-0.625 -0.671875 -1.625 -0.671875q-1.0625 0 -1.953125 0.75q-0.890625 0.734375 -1.328125 2.21875zm8.016357 5.796875l2.0625 -9.859375l1.671875 0l-0.34375 1.625q0.9375 -1.046875 1.671875 -1.4375q0.734375 -0.40625 1.609375 -0.40625q0.90625 0 1.515625 0.5q0.625 0.484375 0.828125 1.34375q0.75 -0.921875 1.578125 -1.375q0.828125 -0.46875 1.75 -0.46875q1.234375 0 1.84375 0.59375q0.625 0.578125 0.625 1.640625q0 0.453125 -0.21875 1.5l-1.328125 6.34375l-1.671875 0l1.359375 -6.515625q0.171875 -0.796875 0.171875 -1.140625q0 -0.484375 -0.3125 -0.75q-0.296875 -0.28125 -0.859375 -0.28125q-0.75 0 -1.53125 0.453125q-0.78125 0.453125 -1.21875 1.1875q-0.421875 0.734375 -0.75 2.265625l-1.0 4.78125l-1.671875 0l1.390625 -6.65625q0.140625 -0.671875 0.140625 -0.953125q0 -0.484375 -0.296875 -0.78125q-0.296875 -0.296875 -0.78125 -0.296875q-0.71875 0 -1.5 0.453125q-0.78125 0.453125 -1.28125 1.265625q-0.484375 0.8125 -0.796875 2.3125l-0.984375 4.65625l-1.671875 0zm22.197021 -1.21875q-0.875 0.75 -1.6875 1.09375q-0.8125 0.34375 -1.71875 0.34375q-1.375 0 -2.21875 -0.796875q-0.828125 -0.796875 -0.828125 -2.0625q0 -0.8125 0.375 -1.453125q0.390625 -0.640625 1.0 -1.015625q0.625 -0.390625 1.53125 -0.5625q0.5625 -0.109375 2.140625 -0.171875q1.578125 -0.0625 2.265625 -0.328125q0.203125 -0.6875 0.203125 -1.140625q0 -0.59375 -0.4375 -0.921875q-0.578125 -0.46875 -1.703125 -0.46875q-1.046875 0 -1.734375 0.46875q-0.671875 0.46875 -0.96875 1.328125l-1.703125 -0.140625q0.515625 -1.46875 1.640625 -2.25q1.140625 -0.78125 2.859375 -0.78125q1.828125 0 2.890625 0.875q0.8125 0.65625 0.8125 1.6875q0 0.796875 -0.234375 1.828125l-0.546875 2.453125q-0.25 1.171875 -0.25 1.890625q0 0.46875 0.203125 1.34375l-1.703125 0q-0.140625 -0.484375 -0.1875 -1.21875zm0.609375 -3.765625q-0.34375 0.125 -0.75 0.203125q-0.40625 0.078125 -1.34375 0.15625q-1.46875 0.140625 -2.078125 0.34375q-0.59375 0.1875 -0.90625 0.625q-0.3125 0.4375 -0.3125 0.96875q0 0.703125 0.484375 1.15625q0.5 0.453125 1.390625 0.453125q0.84375 0 1.609375 -0.4375q0.765625 -0.4375 1.203125 -1.21875q0.453125 -0.796875 0.703125 -2.25zm5.2351074 -2.96875l0.390625 -1.90625l1.890625 0l-0.390625 1.90625l-1.890625 0zm-1.671875 7.953125l0.40625 -1.90625l1.90625 0l-0.40625 1.90625l-1.90625 0zm4.7301636 0l2.84375 -13.59375l1.6875 0l-1.09375 5.21875q0.9375 -0.90625 1.734375 -1.296875q0.8125 -0.40625 1.671875 -0.40625q1.21875 0 1.890625 0.65625q0.6875 0.640625 0.6875 1.6875q0 0.53125 -0.296875 1.921875l-1.21875 5.8125l-1.671875 0l1.25 -5.96875q0.265625 -1.296875 0.265625 -1.625q0 -0.484375 -0.34375 -0.78125q-0.328125 -0.3125 -0.953125 -0.3125q-0.90625 0 -1.734375 0.484375q-0.828125 0.46875 -1.296875 1.296875q-0.46875 0.828125 -0.859375 2.671875l-0.875 4.234375l-1.6875 0zm17.031982 -1.21875q-0.875 0.75 -1.6875 1.09375q-0.8125 0.34375 -1.71875 0.34375q-1.375 0 -2.21875 -0.796875q-0.828125 -0.796875 -0.828125 -2.0625q0 -0.8125 0.375 -1.453125q0.390625 -0.640625 1.0 -1.015625q0.625 -0.390625 1.53125 -0.5625q0.5625 -0.109375 2.140625 -0.171875q1.578125 -0.0625 2.265625 -0.328125q0.203125 -0.6875 0.203125 -1.140625q0 -0.59375 -0.4375 -0.921875q-0.578125 -0.46875 -1.703125 -0.46875q-1.046875 0 -1.734375 0.46875q-0.671875 0.46875 -0.96875 1.328125l-1.703125 -0.140625q0.515625 -1.46875 1.640625 -2.25q1.140625 -0.78125 2.859375 -0.78125q1.828125 0 2.890625 0.875q0.8125 0.65625 0.8125 1.6875q0 0.796875 -0.234375 1.828125l-0.546875 2.453125q-0.25 1.171875 -0.25 1.890625q0 0.46875 0.203125 1.34375l-1.703125 0q-0.140625 -0.484375 -0.1875 -1.21875zm0.609375 -3.765625q-0.34375 0.125 -0.75 0.203125q-0.40625 0.078125 -1.34375 0.15625q-1.46875 0.140625 -2.078125 0.34375q-0.59375 0.1875 -0.90625 0.625q-0.3125 0.4375 -0.3125 0.96875q0 0.703125 0.484375 1.15625q0.5 0.453125 1.390625 0.453125q0.84375 0 1.609375 -0.4375q0.765625 -0.4375 1.203125 -1.21875q0.453125 -0.796875 0.703125 -2.25zm3.2663574 1.609375l1.6875 -0.09375q0 0.71875 0.21875 1.234375q0.21875 0.515625 0.8125 0.84375q0.609375 0.3125 1.40625 0.3125q1.109375 0 1.671875 -0.4375q0.5625 -0.453125 0.5625 -1.046875q0 -0.4375 -0.34375 -0.828125q-0.34375 -0.390625 -1.671875 -0.953125q-1.328125 -0.578125 -1.703125 -0.8125q-0.625 -0.375 -0.9375 -0.890625q-0.3125 -0.515625 -0.3125 -1.1875q0 -1.171875 0.921875 -2.0q0.9375 -0.84375 2.609375 -0.84375q1.84375 0 2.8125 0.859375q0.96875 0.859375 1.015625 2.265625l-1.640625 0.109375q-0.046875 -0.890625 -0.640625 -1.40625q-0.59375 -0.53125 -1.671875 -0.53125q-0.875 0 -1.359375 0.40625q-0.484375 0.390625 -0.484375 0.859375q0 0.46875 0.421875 0.8125q0.28125 0.25 1.4375 0.75q1.9375 0.828125 2.4375 1.3125q0.796875 0.765625 0.796875 1.875q0 0.734375 -0.453125 1.4375q-0.453125 0.703125 -1.375 1.125q-0.921875 0.421875 -2.171875 0.421875q-1.703125 0 -2.90625 -0.84375q-1.203125 -0.84375 -1.140625 -2.75zm9.359375 3.375l2.859375 -13.59375l5.671875 0q1.46875 0 2.203125 0.34375q0.75 0.328125 1.21875 1.15625q0.484375 0.8125 0.484375 1.828125q0 0.84375 -0.34375 1.71875q-0.328125 0.875 -0.859375 1.4375q-0.53125 0.5625 -1.0625 0.859375q-0.53125 0.28125 -1.15625 0.421875q-1.296875 0.3125 -2.640625 0.3125l-3.40625 0l-1.140625 5.515625l-1.828125 0zm3.296875 -7.0625l3.0 0q1.734375 0 2.546875 -0.375q0.828125 -0.375 1.3125 -1.140625q0.5 -0.78125 0.5 -1.640625q0 -0.65625 -0.265625 -1.078125q-0.25 -0.4375 -0.734375 -0.625q-0.46875 -0.203125 -1.8125 -0.203125l-3.484375 0l-1.0625 5.0625zm15.6154175 5.84375q-0.875 0.75 -1.6875 1.09375q-0.8125 0.34375 -1.71875 0.34375q-1.375 0 -2.21875 -0.796875q-0.828125 -0.796875 -0.828125 -2.0625q0 -0.8125 0.375 -1.453125q0.390625 -0.640625 1.0 -1.015625q0.625 -0.390625 1.53125 -0.5625q0.5625 -0.109375 2.140625 -0.171875q1.578125 -0.0625 2.265625 -0.328125q0.203125 -0.6875 0.203125 -1.140625q0 -0.59375 -0.4375 -0.921875q-0.578125 -0.46875 -1.703125 -0.46875q-1.046875 0 -1.734375 0.46875q-0.671875 0.46875 -0.96875 1.328125l-1.703125 -0.140625q0.515625 -1.46875 1.640625 -2.25q1.140625 -0.78125 2.859375 -0.78125q1.828125 0 2.890625 0.875q0.8125 0.65625 0.8125 1.6875q0 0.796875 -0.234375 1.828125l-0.546875 2.453125q-0.25 1.171875 -0.25 1.890625q0 0.46875 0.203125 1.34375l-1.703125 0q-0.140625 -0.484375 -0.1875 -1.21875zm0.609375 -3.765625q-0.34375 0.125 -0.75 0.203125q-0.40625 0.078125 -1.34375 0.15625q-1.46875 0.140625 -2.078125 0.34375q-0.59375 0.1875 -0.90625 0.625q-0.3125 0.4375 -0.3125 0.96875q0 0.703125 0.484375 1.15625q0.5 0.453125 1.390625 0.453125q0.84375 0 1.609375 -0.4375q0.765625 -0.4375 1.203125 -1.21875q0.453125 -0.796875 0.703125 -2.25zm3.1101074 4.984375l2.0625 -9.859375l1.484375 0l-0.421875 2.015625q0.765625 -1.140625 1.484375 -1.6875q0.734375 -0.546875 1.5 -0.546875q0.5 0 1.234375 0.359375l-0.6875 1.5625q-0.4375 -0.3125 -0.953125 -0.3125q-0.875 0 -1.8125 0.984375q-0.921875 0.984375 -1.453125 3.53125l-0.828125 3.953125l-1.609375 0zm10.1501465 -1.359375l-0.28125 1.375q-0.609375 0.15625 -1.171875 0.15625q-1.0 0 -1.59375 -0.5q-0.453125 -0.375 -0.453125 -1.015625q0 -0.3125 0.25 -1.484375l1.1875 -5.71875l-1.328125 0l0.28125 -1.3125l1.328125 0l0.5 -2.421875l1.921875 -1.15625l-0.75 3.578125l1.65625 0l-0.28125 1.3125l-1.640625 0l-1.140625 5.4375q-0.21875 1.046875 -0.21875 1.25q0 0.296875 0.171875 0.453125q0.171875 0.15625 0.5625 0.15625q0.5625 0 1.0 -0.109375z"
       fill-rule="nonzero"
       id="path101" />
    <path
       fill="#000000"
       fill-opacity="0.0"
       d="m349.68753 137.68352l135.1496 0l0 54.708664l-135.1496 0z"
       fill-rule="nonzero"
       id="path103" />
    <path
       fill="#000000"
       fill-opacity="0.0"
       d="m324.00262 292.22607l214.51971 0l0 37.039368l-214.51971 0z"
       fill-rule="nonzero"
       id="path109" />
    <path
       fill="#000000"
       fill-opacity="0.0"
       d="m102.53543 254.74803l99.14961 0l0 37.039383l-99.14961 0z"
       fill-rule="nonzero"
       id="path115" />
    <path
       fill="#000000"
       fill-opacity="0.0"
       d="m298.7454 235.79002l135.14963 0l0 37.039383l-135.14963 0z"
       fill-rule="nonzero"
       id="path119" />
    <a
       id="a5770"
       xlink:href="http://iswc2013.semanticweb.org/content/call-workshops.html"
       target="_blank">
      <a
         id="a5775"
         xlink:href="http://iswc2013.semanticweb.org/content/call-workshops.html"
         target="_blank">
        <text
           xml:space="preserve"
           style="font-style:normal;font-weight:normal;font-size:40px;line-height:125%;font-family:sans-serif;letter-spacing:0px;word-spacing:0px;fill:#000000;fill-opacity:1;stroke:none;stroke-width:1px;stroke-linecap:butt;stroke-linejoin:miter;stroke-opacity:1"
           x="25.768417"
           y="66.568481"
           id="text4273"
           sodipodi:linespacing="125%"><tspan
             sodipodi:role="line"
             id="tspan4275"
             x="25.768417"
             y="66.568481"
             style="font-weight:bold;font-size:17.5px;line-height:125%">http://iswc2013.semanticweb.org/</tspan><tspan
             sodipodi:role="line"
             x="25.768417"
             y="88.443481"
             style="font-weight:bold;font-size:17.5px;line-height:125%"
             id="tspan4277">content/call-workshops.html</tspan></text>
      </a>
    </a>
    <a
       id="a5780"
       xlink:href="http://semstats.org/2013/"
       target="_blank">
      <text
         sodipodi:linespacing="125%"
         id="text4279"
         y="76.52446"
         x="490.18555"
         style="font-style:normal;font-weight:normal;font-size:40px;line-height:125%;font-family:sans-serif;letter-spacing:0px;word-spacing:0px;fill:#000000;fill-opacity:1;stroke:none;stroke-width:1px;stroke-linecap:butt;stroke-linejoin:miter;stroke-opacity:1"
         xml:space="preserve"><tspan
           style="font-weight:bold;font-size:17.5px;line-height:125%"
           y="76.52446"
           x="490.18555"
           id="tspan4281"
           sodipodi:role="line">http://semstats.org/2013/</tspan></text>
    </a>
    <a
       id="a5784"
       xlink:href="http://semstats.org/2013/call-for-papers"
       target="_blank">
      <text
         sodipodi:linespacing="125%"
         id="text4283"
         y="188.96846"
         x="491.94247"
         style="font-style:normal;font-weight:normal;font-size:40px;line-height:125%;font-family:sans-serif;letter-spacing:0px;word-spacing:0px;fill:#000000;fill-opacity:1;stroke:none;stroke-width:1px;stroke-linecap:butt;stroke-linejoin:miter;stroke-opacity:1"
         xml:space="preserve"><tspan
           style="font-weight:bold;font-size:17.5px;line-height:125%"
           y="188.96846"
           x="491.94247"
           id="tspan4285"
           sodipodi:role="line">http://semstats.org/2013/</tspan><tspan
           style="font-weight:bold;font-size:17.5px;line-height:125%"
           id="tspan4287"
           y="210.84346"
           x="491.94247"
           sodipodi:role="line">call-for-papers</tspan></text>
    </a>
    <a
       id="a5799"
       xlink:href="http://csarven.ca/linked-statistical-data-analysis"
       target="_blank">
      <text
         sodipodi:linespacing="125%"
         id="text4293"
         y="188.62589"
         x="39.823917"
         style="font-style:normal;font-weight:normal;font-size:40px;line-height:125%;font-family:sans-serif;letter-spacing:0px;word-spacing:0px;fill:#000000;fill-opacity:1;stroke:none;stroke-width:1px;stroke-linecap:butt;stroke-linejoin:miter;stroke-opacity:1"
         xml:space="preserve"><tspan
           style="font-weight:bold;font-size:17.5px;line-height:125%"
           y="188.62589"
           x="39.823917"
           id="tspan4295"
           sodipodi:role="line">http://csarven.ca/</tspan><tspan
           style="font-weight:bold;font-size:17.5px;line-height:125%"
           id="tspan4297"
           y="210.50089"
           x="39.823917"
           sodipodi:role="line">linked-statistical-data-analysis</tspan></text>
    </a>
    <a
       id="a5794"
       xlink:href="http://ceur-ws.org/Vol-1549/#paper-06"
       target="_blank">
      <text
         sodipodi:linespacing="125%"
         id="text4299"
         y="341.57895"
         x="89.890892"
         style="font-style:normal;font-weight:normal;font-size:40px;line-height:125%;font-family:sans-serif;letter-spacing:0px;word-spacing:0px;fill:#000000;fill-opacity:1;stroke:none;stroke-width:1px;stroke-linecap:butt;stroke-linejoin:miter;stroke-opacity:1"
         xml:space="preserve"><tspan
           style="font-weight:bold;font-size:17.5px;line-height:125%"
           y="341.57895"
           x="89.890892"
           id="tspan4301"
           sodipodi:role="line">http://ceur-ws.org/</tspan><tspan
           style="font-weight:bold;font-size:17.5px;line-height:125%"
           id="tspan4303"
           y="363.45395"
           x="89.890892"
           sodipodi:role="line">Vol-1549/#paper-06</tspan></text>
    </a>
    <a
       id="a5789"
       xlink:href="http://ceur-ws.org/Vol-1549/"
       target="_blank">
      <text
         sodipodi:linespacing="125%"
         id="text4299-4"
         y="341.56885"
         x="524.18744"
         style="font-style:normal;font-weight:normal;font-size:40px;line-height:125%;font-family:sans-serif;letter-spacing:0px;word-spacing:0px;fill:#000000;fill-opacity:1;stroke:none;stroke-width:1px;stroke-linecap:butt;stroke-linejoin:miter;stroke-opacity:1"
         xml:space="preserve"><tspan
           style="font-weight:bold;font-size:17.5px;line-height:125%"
           y="341.56885"
           x="524.18744"
           id="tspan4301-1"
           sodipodi:role="line">http://ceur-ws.org/</tspan><tspan
           style="font-weight:bold;font-size:17.5px;line-height:125%"
           id="tspan4303-3"
           y="363.44385"
           x="524.18744"
           sodipodi:role="line">Vol-1549/</tspan></text>
    </a>
    <text
       xml:space="preserve"
       style="font-style:normal;font-weight:normal;font-size:40px;line-height:125%;font-family:sans-serif;letter-spacing:0px;word-spacing:0px;fill:#000000;fill-opacity:1;stroke:none;stroke-width:1px;stroke-linecap:butt;stroke-linejoin:miter;stroke-opacity:1"
       x="397.90805"
       y="38.21442"
       id="text4326"
       sodipodi:linespacing="125%"><tspan
         sodipodi:role="line"
         id="tspan4328"
         x="397.90805"
         y="38.21442"
         style="font-style:italic;font-size:17.5px;line-height:125%">sioc:</tspan><tspan
         sodipodi:role="line"
         x="397.90805"
         y="60.08942"
         id="tspan4330"
         style="font-style:italic;font-size:17.5px;line-height:125%">reply_of</tspan></text>
    <text
       xml:space="preserve"
       style="font-style:normal;font-weight:normal;font-size:40px;line-height:125%;font-family:sans-serif;letter-spacing:0px;word-spacing:0px;fill:#000000;fill-opacity:1;stroke:none;stroke-width:1px;stroke-linecap:butt;stroke-linejoin:miter;stroke-opacity:1"
       x="376.14111"
       y="161.53206"
       id="text4326-4"
       sodipodi:linespacing="125%"><tspan
         sodipodi:role="line"
         id="tspan4328-4"
         x="376.14111"
         y="161.53206"
         style="font-style:italic;font-size:17.5px;line-height:125%">sioc:</tspan><tspan
         sodipodi:role="line"
         x="376.14111"
         y="183.40706"
         id="tspan4330-4"
         style="font-style:italic;font-size:17.5px;line-height:125%">reply_of</tspan></text>
    <text
       xml:space="preserve"
       style="font-style:normal;font-weight:normal;font-size:40px;line-height:125%;font-family:sans-serif;letter-spacing:0px;word-spacing:0px;fill:#000000;fill-opacity:1;stroke:none;stroke-width:1px;stroke-linecap:butt;stroke-linejoin:miter;stroke-opacity:1"
       x="390.78223"
       y="317.89951"
       id="text4326-0"
       sodipodi:linespacing="125%"><tspan
         sodipodi:role="line"
         x="390.78223"
         y="317.89951"
         id="tspan4330-6"
         style="font-style:italic;font-size:17.5px;line-height:125%">schema:</tspan><tspan
         sodipodi:role="line"
         x="390.78223"
         y="339.77451"
         style="font-style:italic;font-size:17.5px;line-height:125%"
         id="tspan4365">hasPart</tspan></text>
    <text
       xml:space="preserve"
       style="font-style:normal;font-weight:normal;font-size:40px;line-height:125%;font-family:sans-serif;letter-spacing:0px;word-spacing:0px;fill:#000000;fill-opacity:1;stroke:none;stroke-width:1px;stroke-linecap:butt;stroke-linejoin:miter;stroke-opacity:1"
       x="335.1459"
       y="252.89281"
       id="text4326-2"
       sodipodi:linespacing="125%"><tspan
         sodipodi:role="line"
         x="335.1459"
         y="252.89281"
         id="tspan4330-2"
         style="font-style:italic;font-size:17.5px;line-height:125%">bibo:</tspan><tspan
         sodipodi:role="line"
         x="335.1459"
         y="274.76779"
         style="font-style:italic;font-size:17.5px;line-height:125%"
         id="tspan4379">citedBy</tspan></text>
    <text
       xml:space="preserve"
       style="font-style:normal;font-weight:normal;font-size:40px;line-height:125%;font-family:sans-serif;letter-spacing:0px;word-spacing:0px;fill:#000000;fill-opacity:1;stroke:none;stroke-width:1px;stroke-linecap:butt;stroke-linejoin:miter;stroke-opacity:1"
       x="143.05406"
       y="274.56171"
       id="text4326-7"
       sodipodi:linespacing="125%"><tspan
         sodipodi:role="line"
         x="143.05406"
         y="274.56171"
         id="tspan4330-48"
         style="font-style:italic;font-size:17.5px;line-height:125%">bibo:</tspan><tspan
         sodipodi:role="line"
         x="143.05406"
         y="296.43671"
         style="font-style:italic;font-size:17.5px;line-height:125%"
         id="tspan4393">uri</tspan></text>
  </g>
</svg>
